<?xml version="1.0" encoding="UTF-8"?>
<svg id="Ebene_2" xmlns="http://www.w3.org/2000/svg" viewBox="0 0 453.34 997.98">
  <defs>
    <style>
      .cls-1 {
        fill: #fff;
      }
    </style>
  </defs>
  <g id="Ebene_1-2" data-name="Ebene_1">
    <g>
      <path class="cls-1" d="M25.94,954.66c36.06,30.32,84.43,42.65,130.79,43.25h.5c71.17,1.67,140.95-28.6,193.44-76.41,44.72-38.8,76.28-91.16,79.79-150.57,7.96-90.31-47.77-168.06-90.6-243.39-34.35-58.56-69.78-116.58-103.64-175.4-17.7-30.34-35.96-60.43-54.33-90.42-2.77-4.43-5.54-9.03-8.35-13.67-3.11-5.13-9.88-6.61-14.86-3.27-9.28,6.24-18.42,12.7-27.62,19.06-4.49,3.11-5.84,9.16-3.1,13.89,64.48,111.31,134.13,219.83,197.19,331.93,26.03,47.03,52.96,96.11,58.24,150.4,16.75,138.49-140.36,242.73-267.38,212.79-28.12-5.95-52.88-21.06-77.02-35.93-14.29-8.07-29.27-17.42-34.16-13.07-16.47,4.33,13.92,24.38,21.11,30.8Z"/>
      <path class="cls-1" d="M431.91,43.32C395.86,13,347.48.67,301.12.07h-.5c-71.17-1.67-140.95,28.6-193.44,76.41C62.46,115.29,30.9,167.65,27.39,227.05c-7.96,90.31,47.77,168.06,90.6,243.39,34.35,58.56,69.78,116.58,103.64,175.4,17.7,30.34,35.96,60.43,54.33,90.42,2.77,4.43,5.54,9.03,8.35,13.67,3.11,5.13,9.88,6.61,14.86,3.27,9.28-6.24,18.42-12.7,27.62-19.06,4.49-3.11,5.84-9.16,3.1-13.89-64.48-111.31-134.13-219.83-197.19-331.93-26.03-47.03-52.96-96.11-58.24-150.4C57.71,99.43,214.81-4.81,341.84,25.13c28.12,5.95,52.88,21.06,77.02,35.93,14.29,8.07,29.27,17.42,34.16,13.07,2.83-8.64-13.92-24.38-21.11-30.8Z"/>
    </g>
  </g>
</svg>