<?xml version="1.0" encoding="UTF-8"?><svg id="Finales_Logo" xmlns="http://www.w3.org/2000/svg" viewBox="0 0 3000 2998"><path d="M1697.92,742.05l-368.07,169.31c-9.93,4.57-13.78,16.68-8.32,26.14l18.93,32.79c5.46,9.46,17.88,12.18,26.8,5.87l330.66-234.1Z" fill="#0b8aa8"/><path d="M2090.75,1950.35h282.61c16.36,0,29.12,14.1,27.6,30.39-42.92,457.78-429.27,817.76-899.53,817.76-500.41,0-904.7-404.29-904.7-904.7,0-53.98,3.58-90.07,7.89-111.11,1.67-8.17,6.98-15.13,14.39-18.97l330.78-171.43c19.21-9.96,20.11-37.09,1.61-48.31-198.48-120.37-326.4-324.7-326.4-583.15,0-421.25,342.09-763.34,763.34-763.34,213.08,0,407.68,87.1,545.55,228.16,8.6,8.8,21.99,10.83,32.84,5.03l395.79-211.41c18.47-9.86,40.78,3.52,40.78,24.45v273.63c0,10.2-5.61,19.58-14.59,24.41l-264.04,141.98c-11.95,6.43-17.48,20.56-13.09,33.4,26.02,76.03,40.1,158.68,40.1,243.67,0,159.32-46.98,313.11-149.12,436.78-2.33,2.82-5.21,5.13-8.45,6.83l-1041.13,545.49c-10.4,5.45-16.2,16.84-14.58,28.47,39.69,284.55,281.09,503.46,563.04,503.46s513.58-217.36,561.98-508.28c2.23-13.39,13.77-23.23,27.35-23.23ZM1317.9,1403.05l446.68-228.79c5.41-2.77,9.78-7.23,12.38-12.72,28.46-60.11,43.93-127.84,43.93-200.72,0-248.79-192.25-449.52-432.56-449.52s-432.56,200.73-432.56,449.52c0,216.91,147.71,401,343.59,444.64,6.27,1.4,12.83.51,18.55-2.42Z" fill="#0b8aa8"/></svg>