<?xml version="1.0" encoding="UTF-8"?><svg id="Finales_Logo" xmlns="http://www.w3.org/2000/svg" xmlns:xlink="http://www.w3.org/1999/xlink" viewBox="0 0 3000 3000"><defs><linearGradient id="Unbenannter_Verlauf_27" x1="553.61" y1="1512.03" x2="784.33" y2="1512.03" gradientUnits="userSpaceOnUse"><stop offset="0" stop-color="#93c5fd"/><stop offset="1" stop-color="#60a5fa"/></linearGradient><linearGradient id="Unbenannter_Verlauf_27-2" x1="781.94" x2="920.99" xlink:href="#Unbenannter_Verlauf_27"/><linearGradient id="Unbenannter_Verlauf_27-3" x1="935.28" y1="1547.75" x2="1087.42" y2="1547.75" xlink:href="#Unbenannter_Verlauf_27"/><linearGradient id="Unbenannter_Verlauf_27-4" x1="1090.99" x2="1321.71" xlink:href="#Unbenannter_Verlauf_27"/><linearGradient id="Unbenannter_Verlauf_27-5" x1="1319.32" x2="1458.37" xlink:href="#Unbenannter_Verlauf_27"/><linearGradient id="Unbenannter_Verlauf_27-6" x1="1477.42" y1="1479.89" x2="1505.99" y2="1479.89" xlink:href="#Unbenannter_Verlauf_27"/><linearGradient id="Unbenannter_Verlauf_27-7" x1="1527.42" x2="1628.61" xlink:href="#Unbenannter_Verlauf_27"/><linearGradient id="Unbenannter_Verlauf_27-8" x1="1639.32" x2="1778.37" xlink:href="#Unbenannter_Verlauf_27"/><linearGradient id="Unbenannter_Verlauf_27-9" x1="1797.42" y1="1509.65" x2="1868.14" y2="1509.65" xlink:href="#Unbenannter_Verlauf_27"/><linearGradient id="Unbenannter_Verlauf_27-10" x1="1891.52" y1="1477.58" x2="2024.42" y2="1477.58" xlink:href="#Unbenannter_Verlauf_27"/><linearGradient id="Unbenannter_Verlauf_27-11" x1="2086.82" y1="1482.38" x2="2095.82" y2="1482.38" xlink:href="#Unbenannter_Verlauf_27"/><linearGradient id="Unbenannter_Verlauf_27-12" x1="2148.92" y1="1549.13" x2="2284.52" y2="1549.13" xlink:href="#Unbenannter_Verlauf_27"/><linearGradient id="Unbenannter_Verlauf_27-13" x1="2344.52" y1="1482.38" x2="2353.52" y2="1482.38" xlink:href="#Unbenannter_Verlauf_27"/><linearGradient id="Unbenannter_Verlauf_27-14" x1="2395.51" y1="1497.23" x2="2489.11" y2="1497.23" xlink:href="#Unbenannter_Verlauf_27"/><linearGradient id="Unbenannter_Verlauf_27-15" x1="2516.41" y1="1516.58" x2="2647.21" y2="1516.58" xlink:href="#Unbenannter_Verlauf_27"/><linearGradient id="Unbenannter_Verlauf_27-16" x1="2710.51" y1="1476.08" x2="2714.11" y2="1476.08" xlink:href="#Unbenannter_Verlauf_27"/><linearGradient id="Unbenannter_Verlauf_27-17" x1="370.78" y1="1420.69" x2="415.31" y2="1420.69" xlink:href="#Unbenannter_Verlauf_27"/><linearGradient id="Unbenannter_Verlauf_27-18" x1="285.89" y1="1495.58" x2="498.21" y2="1495.58" xlink:href="#Unbenannter_Verlauf_27"/></defs><path d="M718.61,1526.32l33.81-83.33h31.9l-65,147.62-50.24-101.67-50,101.67-65.48-147.62h32.86l33.33,83.33,49.52-92.86,49.29,92.86Z" fill="url(#Unbenannter_Verlauf_27)"/><path d="M897.42,1534.18l23.57,12.38c-12.38,23.33-36.91,39.29-65.24,39.29-40.95,0-73.81-33.33-73.81-73.81s33.1-73.81,73.81-73.81c32.14,0,59.05,22.62,64.52,48.57l-101.43,54.52c7.14,11.43,21.91,17.86,36.91,17.86,19.52,0,30.95-11.19,41.67-25ZM809.56,1517.27l75.95-40.24c-6.67-8.33-18.33-12.14-29.76-12.14-34.05,0-48.1,31.91-46.19,52.38Z" fill="url(#Unbenannter_Verlauf_27-2)"/><path d="M1059.09,1585.84h28.33c-2.38,39.76-35.48,71.43-75.95,71.43s-76.19-34.05-76.19-76.19c0-5.71.48-9.05.95-10.48l32.62-16.91c-18.81-9.76-31.19-27.86-31.19-51.19,0-35.48,28.81-64.29,64.29-64.29,18.57,0,35.48,7.86,47.14,20.48l38.33-20.48v28.33l-25.24,13.57c2.62,6.9,4.05,14.52,4.05,22.38,0,13.57-4.05,26.67-12.86,37.14l-89.53,46.91c2.62,24.76,23.33,44.05,47.62,44.05s44.29-19.29,47.62-44.76ZM995.28,1540.13l39.05-20c2.62-5.24,4.05-11.19,4.05-17.62,0-20.95-16.19-37.86-36.43-37.86s-36.43,16.91-36.43,37.86c0,18.57,12.86,34.29,29.76,37.62Z" fill="url(#Unbenannter_Verlauf_27-3)"/><path d="M1255.99,1526.32l33.81-83.33h31.91l-65,147.62-50.24-101.67-50,101.67-65.48-147.62h32.86l33.33,83.33,49.52-92.86,49.29,92.86Z" fill="url(#Unbenannter_Verlauf_27-4)"/><path d="M1434.8,1534.18l23.57,12.38c-12.38,23.33-36.91,39.29-65.24,39.29-40.95,0-73.81-33.33-73.81-73.81s33.1-73.81,73.81-73.81c32.14,0,59.05,22.62,64.53,48.57l-101.43,54.52c7.14,11.43,21.9,17.86,36.9,17.86,19.53,0,30.95-11.19,41.67-25ZM1346.94,1517.27l75.95-40.24c-6.67-8.33-18.33-12.14-29.76-12.14-34.05,0-48.1,31.91-46.19,52.38Z" fill="url(#Unbenannter_Verlauf_27-5)"/><path d="M1477.42,1378.7h28.57v28.57h-28.57v-28.57ZM1477.42,1442.98h28.57v138.1h-28.57v-138.1Z" fill="url(#Unbenannter_Verlauf_27-6)"/><path d="M1531.47,1481.08c0-24.52,19.05-42.86,48.33-42.86,27.38,0,43.81,13.33,43.81,13.33l-12.38,22.14s-15.24-8.81-30-8.81c-13.81,0-21.43,7.62-21.43,15s7.14,13.33,23.1,18.1c22.62,6.67,45.71,19.05,45.71,44.52,0,23.57-19.53,43.33-50.48,43.33s-50.71-16.91-50.71-16.91l12.38-21.43s17.86,11.91,36.9,11.91c15.95,0,23.57-8.1,23.57-15.24,0-8.33-10.48-15.48-28.1-20.95-14.52-4.52-40.71-12.38-40.71-42.14Z" fill="url(#Unbenannter_Verlauf_27-7)"/><path d="M1754.8,1534.18l23.57,12.38c-12.38,23.33-36.91,39.29-65.24,39.29-40.95,0-73.81-33.33-73.81-73.81s33.1-73.81,73.81-73.81c32.14,0,59.05,22.62,64.53,48.57l-101.43,54.52c7.14,11.43,21.9,17.86,36.9,17.86,19.53,0,30.95-11.19,41.67-25ZM1666.94,1517.27l75.96-40.24c-6.67-8.33-18.33-12.14-29.76-12.14-34.05,0-48.1,31.91-46.19,52.38Z" fill="url(#Unbenannter_Verlauf_27-8)"/><path d="M1825.04,1442.98l.95,17.86,42.14-22.62v28.33l-42.14,22.86v91.67h-28.57v-138.1h27.62Z" fill="url(#Unbenannter_Verlauf_27-9)"/><path d="M2020.52,1581.08c-1.2-7.5-1.8-15-2.1-22.5-8.4,9.9-29.1,25.5-57.3,25.5-38.1,0-69.6-26.7-69.6-67.8s32.1-67.2,69.9-67.2c20.1,0,40.5,9.6,57,25.8v-103.8h3.6v185.7c0,7.8.9,15.9,2.4,24.3h-3.9ZM1895.12,1516.28c0,39.3,29.7,64.8,66,64.8,30,0,51-19.5,57.3-26.7v-75.9c-16.5-15.9-37.2-26.4-57-26.4-36,0-66.3,25.5-66.3,64.2Z" fill="url(#Unbenannter_Verlauf_27-10)"/><path d="M2091.32,1383.68c2.7,0,4.5,1.8,4.5,4.5s-1.8,4.5-4.5,4.5-4.5-2.1-4.5-4.5,1.8-4.5,4.5-4.5ZM2089.52,1581.08v-129h3.6v129h-3.6Z" fill="url(#Unbenannter_Verlauf_27-11)"/><path d="M2275.82,1558.28c-17.4,16.2-38.7,25.8-60,25.8-36.3,0-66.9-26.7-66.9-67.2s33-67.8,72.6-67.8c26.7,0,46.2,15.6,54.3,25.5.3-7.5,1.5-15,4.8-22.5h3.9c-3.6,8.4-5.1,16.5-5.1,24.3v117.6c0,30.3-21.6,55.2-63.3,55.2-29.1,0-46.2-11.1-57.6-24.6l3-1.8c10.8,12.9,27,23.4,54.6,23.4,39.3,0,59.7-23.7,59.7-52.2v-35.7ZM2275.82,1554.68v-75.9c-6-7.2-25.8-26.7-54.3-26.7-37.8,0-69,25.5-69,64.8s28.8,64.2,63.3,64.2c20.7,0,42.6-10.5,60-26.4Z" fill="url(#Unbenannter_Verlauf_27-12)"/><path d="M2349.02,1383.68c2.7,0,4.5,1.8,4.5,4.5s-1.8,4.5-4.5,4.5-4.5-2.1-4.5-4.5,1.8-4.5,4.5-4.5ZM2347.21,1581.08v-129h3.6v129h-3.6Z" fill="url(#Unbenannter_Verlauf_27-13)"/><path d="M2395.51,1452.08h30v-41.7h3.6v41.7h54.6v3h-54.6v94.8c0,23.4,15,31.2,27,31.2s23.7-5.4,30.6-11.1l2.4,2.4c-7.2,6-20.1,11.7-33,11.7s-30.6-8.4-30.6-34.2v-94.8h-30v-3Z" fill="url(#Unbenannter_Verlauf_27-14)"/><path d="M2532.31,1465.88c9.9-6.9,28.2-16.8,53.4-16.8s55.2,9.9,55.2,38.7v69.6c0,6.9,1.2,16.5,6.3,23.7h-3.9c-5.1-7.2-6-17.1-6-25.2-9.3,9.9-36.9,28.2-68.4,28.2-34.2,0-52.5-19.8-52.5-43.8,0-25.2,20.4-45,58.2-45,21.9,0,49.2,5.7,62.7,25.2v-32.7c0-26.4-27.9-35.7-51.6-35.7s-42,9.3-51.6,16.2l-1.8-2.4ZM2637.31,1551.38v-26.1c-12.6-21-39.9-27-62.7-27-35.4,0-54.6,18.6-54.6,42s17.1,40.8,48.9,40.8c36.6,0,66.9-25.2,68.4-29.7Z" fill="url(#Unbenannter_Verlauf_27-15)"/><path d="M2710.51,1581.08v-210h3.6v210h-3.6Z" fill="url(#Unbenannter_Verlauf_27-16)"/><path d="M415.31,1406.73l-43.26,19.9c-1.17.54-1.62,1.96-.98,3.07l2.22,3.85c.64,1.11,2.1,1.43,3.15.69l38.86-27.51Z" fill="url(#Unbenannter_Verlauf_27-17)"/><path d="M461.48,1548.74h33.21c1.92,0,3.42,1.66,3.24,3.57-5.04,53.8-50.45,96.11-105.72,96.11-58.81,0-106.33-47.52-106.33-106.33,0-6.34.42-10.59.93-13.06.2-.96.82-1.78,1.69-2.23l38.88-20.15c2.26-1.17,2.36-4.36.19-5.68-23.33-14.15-38.36-38.16-38.36-68.54,0-49.51,40.21-89.71,89.71-89.71,25.04,0,47.91,10.24,64.12,26.82,1.01,1.03,2.58,1.27,3.86.59l46.52-24.85c2.17-1.16,4.79.41,4.79,2.87v32.16c0,1.2-.66,2.3-1.72,2.87l-31.03,16.69c-1.4.76-2.05,2.42-1.54,3.93,3.06,8.94,4.71,18.65,4.71,28.64,0,18.72-5.52,36.8-17.53,51.34-.27.33-.61.6-.99.8l-122.36,64.11c-1.22.64-1.9,1.98-1.71,3.35,4.66,33.44,33.04,59.17,66.17,59.17s60.36-25.55,66.05-59.74c.26-1.57,1.62-2.73,3.21-2.73ZM370.65,1484.42l52.5-26.89c.64-.33,1.15-.85,1.45-1.49,3.35-7.06,5.16-15.02,5.16-23.59,0-29.24-22.59-52.83-50.84-52.83s-50.84,23.59-50.84,52.83c0,25.49,17.36,47.13,40.38,52.26.74.16,1.51.06,2.18-.28Z" fill="url(#Unbenannter_Verlauf_27-18)"/></svg>